<?xml version="1.0" encoding="iso-8859-1"?>
<!-- Generator: Adobe Illustrator 21.0.2, SVG Export Plug-In . SVG Version: 6.00 Build 0)  -->
<svg xmlns="http://www.w3.org/2000/svg" xmlns:xlink="http://www.w3.org/1999/xlink" version="1.1" id="Layer_1" x="0px" y="0px" viewBox="0 0 40 40" style="enable-background:new 0 0 40 40;" xml:space="preserve">
<g>
	<rect x="2.5" y="19.5" style="fill:#DFF0FE;" width="35" height="18"/>
	<g>
		<path style="fill:#4aa7c0 ;" d="M37,20v17H3V20H37 M38,19H2v19h36V19L38,19z"/>
	</g>
</g>
<g>
	<g>
		<polygon style="fill:#b6dbe5;" points="2.5,37.5 2.5,20.5 6.5,20.5 6.5,24.5 10.5,24.5 10.5,28.5 14.5,28.5 14.5,32.5 18.5,32.5     18.5,37.5   "/>
	</g>
	<g>
		<path style="fill:#4aa7c0 ;" d="M6,21v3v1h1h3v3v1h1h3v3v1h1h3v4H3V21H6 M7,20H2v18h17v-6h-4v-4h-4v-4H7V20L7,20z"/>
	</g>
</g>
<g>
	<rect x="2.5" y="2.5" style="fill:#FFFFFF;" width="35" height="18"/>
	<g>
		<path style="fill:#4aa7c0 ;" d="M37,3v17H3V3H37 M38,2H2v19h36V2L38,2z"/>
	</g>
</g>
<rect x="2" y="2" style="fill:#FFFFFF;" width="36" height="2"/>
<g>
	<rect x="15.5" y="6.5" style="fill:#B6DCFE;" width="9" height="14"/>
	<g>
		<path style="fill:#4aa7c0 ;" d="M24,7v13h-8V7H24 M25,6H15v15h10V6L25,6z"/>
	</g>
</g>
<circle style="fill:#4aa7c0 ;" cx="22.5" cy="13.5" r="0.5"/>
<path style="fill:#4aa7c0 ;" d="M2.5,6L2.5,6C2.225,6,2,5.775,2,5.5v-3C2,2.225,2.225,2,2.5,2h0C2.775,2,3,2.225,3,2.5v3  C3,5.775,2.775,6,2.5,6z"/>
<path style="fill:#4aa7c0 ;" d="M37.5,6L37.5,6C37.225,6,37,5.775,37,5.5v-3C37,2.225,37.225,2,37.5,2l0,0C37.775,2,38,2.225,38,2.5  v3C38,5.775,37.775,6,37.5,6z"/>
</svg>
