<?xml version="1.0" encoding="iso-8859-1"?>
<!-- Generator: Adobe Illustrator 21.0.2, SVG Export Plug-In . SVG Version: 6.00 Build 0)  -->
<svg xmlns="http://www.w3.org/2000/svg" xmlns:xlink="http://www.w3.org/1999/xlink" version="1.1" id="Layer_1" x="0px" y="0px" viewBox="0 0 40 40" style="enable-background:new 0 0 40 40;" xml:space="preserve">
<g>
	<polygon style="fill:#DFF0FE;" points="2.5,38.5 2.5,10.267 19.997,3.536 37.5,10.267 37.5,38.5  "/>
	<g>
		<path style="fill:#4aa7c0;" d="M19.997,4.071L37,10.61V38H3V10.61L19.997,4.071 M19.997,3L2,9.923V39h36V9.923L19.997,3L19.997,3z    "/>
	</g>
</g>
<g>
	<polygon style="fill:#98CCFD;" points="19.997,5.457 1.5,13.247 1.5,9.332 19.997,1.543 38.5,9.332 38.5,13.247  "/>
	<g>
		<path style="fill:#4aa7c0;" d="M19.997,2.085L38,9.664v2.83L20.385,5.078l-0.388-0.163l-0.388,0.163L2,12.494v-2.83L19.997,2.085     M19.997,1L1,9v5l18.997-8L39,14V9L19.997,1L19.997,1z"/>
	</g>
</g>
<g>
	<rect x="8.5" y="17.5" style="fill:#98CCFD;" width="23" height="21"/>
	<g>
		<path style="fill:#4aa7c0;" d="M31,18v20H9V18H31 M32,17H8v22h24V17L32,17z"/>
	</g>
</g>
<g>
	<rect x="17.5" y="10.5" style="fill:#B6DCFE;" width="5" height="4"/>
	<g>
		<path style="fill:#4aa7c0;" d="M22,11v3h-4v-3H22 M23,10h-6v5h6V10L23,10z"/>
	</g>
</g>
<rect x="9" y="17" style="fill:#4aa7c0;" width="22" height="1"/>
<rect x="9" y="20" style="fill:#DFF0FE;" width="22" height="2"/>
<rect x="9" y="24" style="fill:#DFF0FE;" width="22" height="2"/>
<rect x="9" y="28" style="fill:#DFF0FE;" width="22" height="2"/>
<rect x="9" y="32" style="fill:#DFF0FE;" width="22" height="2"/>
<rect x="9" y="36" style="fill:#DFF0FE;" width="22" height="2"/>
<line style="fill:none;stroke:#4788C7;stroke-linecap:round;stroke-miterlimit:10;" x1="17.5" y1="36.5" x2="22.5" y2="36.5"/>
</svg>
