<svg xmlns="http://www.w3.org/2000/svg" xmlns:xlink="http://www.w3.org/1999/xlink" version="1.1" style="enable-background:new 0 0 490.2 490.2;" xml:space="preserve" width="490.2" height="490.2"><rect id="backgroundrect" width="100%" height="100%" x="0" y="0" fill="none" stroke="none"/>
















<g class="currentLayer" style=""><title>Layer 1</title><g id="svg_1" class="selected" fill="#4aa7c0" fill-opacity="1">
	<g id="svg_2" fill="#4aa7c0" fill-opacity="1">
		<path d="M418.5,418.5c95.6-95.6,95.6-251.2,0-346.8s-251.2-95.6-346.8,0s-95.6,251.2,0,346.8S322.9,514.1,418.5,418.5z M89,89    c86.1-86.1,226.1-86.1,312.2,0s86.1,226.1,0,312.2s-226.1,86.1-312.2,0S3,175.1,89,89z" id="svg_3" fill="#4aa7c0" fill-opacity="1"/>
		<path d="M245.1,336.9c3.4,0,6.4-1.4,8.7-3.6c2.2-2.2,3.6-5.3,3.6-8.7v-67.3h67.3c3.4,0,6.4-1.4,8.7-3.6c2.2-2.2,3.6-5.3,3.6-8.7    c0-6.8-5.5-12.3-12.2-12.2h-67.3v-67.3c0-6.8-5.5-12.3-12.2-12.2c-6.8,0-12.3,5.5-12.2,12.2v67.3h-67.3c-6.8,0-12.3,5.5-12.2,12.2    c0,6.8,5.5,12.3,12.2,12.2h67.3v67.3C232.8,331.4,238.3,336.9,245.1,336.9z" id="svg_4" fill="#4aa7c0" fill-opacity="1"/>
	</g>
</g><g id="svg_5">
</g><g id="svg_6">
</g><g id="svg_7">
</g><g id="svg_8">
</g><g id="svg_9">
</g><g id="svg_10">
</g><g id="svg_11">
</g><g id="svg_12">
</g><g id="svg_13">
</g><g id="svg_14">
</g><g id="svg_15">
</g><g id="svg_16">
</g><g id="svg_17">
</g><g id="svg_18">
</g><g id="svg_19">
</g></g></svg>