<svg xmlns="http://www.w3.org/2000/svg" xmlns:xlink="http://www.w3.org/1999/xlink" version="1.1" style="" xml:space="preserve" width="512" height="512"><rect id="backgroundrect" width="100%" height="100%" x="0" y="0" fill="none" stroke="none"/>

















<g class="currentLayer" style=""><title>Layer 1</title><g id="svg_1" class="" fill-opacity="1" fill="#4aa7c0">
	<g id="svg_2" fill="#4aa7c0">
		<path d="M256,0C114.844,0,0,114.844,0,256c0,141.156,114.844,256,256,256s256-114.844,256-256C512,114.844,397.156,0,256,0z     M256,490.667C126.604,490.667,21.333,385.397,21.333,256C21.333,126.606,126.604,21.333,256,21.333    c129.396,0,234.667,105.272,234.667,234.667C490.667,385.397,385.396,490.667,256,490.667z" id="svg_3" fill="#4aa7c0"/>
	</g>
</g><g id="svg_4" class="" fill-opacity="1" fill="#4aa7c0">
	<g id="svg_5" fill="#4aa7c0">
		<rect x="94.89600372314453" y="246.05299377441406" width="309.3330078125" height="21.33300018310547" id="svg_6" fill="#4aa7c0"/>
	</g>
</g><g id="svg_7">
</g><g id="svg_8">
</g><g id="svg_9">
</g><g id="svg_10">
</g><g id="svg_11">
</g><g id="svg_12">
</g><g id="svg_13">
</g><g id="svg_14">
</g><g id="svg_15">
</g><g id="svg_16">
</g><g id="svg_17">
</g><g id="svg_18">
</g><g id="svg_19">
</g><g id="svg_20">
</g><g id="svg_21">
</g></g></svg>