<?xml version="1.0" encoding="iso-8859-1"?>
<!-- Generator: Adobe Illustrator 21.0.2, SVG Export Plug-In . SVG Version: 6.00 Build 0)  -->
<svg xmlns="http://www.w3.org/2000/svg" xmlns:xlink="http://www.w3.org/1999/xlink" version="1.1" id="Layer_1" x="0px" y="0px" viewBox="0 0 40 40" style="enable-background:new 0 0 40 40;" xml:space="preserve">
<g>
	<polygon style="fill:#ecf6f8;" points="2.5,38.5 2.5,10.263 19.497,3.538 36.5,10.263 36.5,38.5  "/>
	<g>
		<path style="fill:#4aa7c0 ;" d="M19.497,4.075L36,10.603V38H3V10.603L19.497,4.075 M19.497,3L2,9.923V39h35V9.923L19.497,3    L19.497,3z"/>
	</g>
</g>
<line style="fill:none;stroke:#4aa7c0;strokeLinecap:round;strokeLinejoin:round;stroke-miterlimit:10;" x1="19.5" y1="38.5" x2="19.5" y2="5.5"/>
<line style="fill:none;stroke:#4aa7c0;strokeLinecap:round;strokeLinejoin:round;stroke-miterlimit:10;" x1="36" y1="22.5" x2="3" y2="22.5"/>
<line style="fill:none;stroke:#4aa7c0;strokeLinecap:round;strokeLinejoin:round;stroke-miterlimit:10;" x1="13" y1="26.5" x2="9" y2="26.5"/>
<line style="fill:none;stroke:#4aa7c0;strokeLinecap:round;strokeLinejoin:round;stroke-miterlimit:10;" x1="30" y1="26.5" x2="26" y2="26.5"/>
<line style="fill:none;stroke:#4aa7c0;strokeLinecap:round;strokeLinejoin:round;stroke-miterlimit:10;" x1="13" y1="10.5" x2="9" y2="10.5"/>
<line style="fill:none;stroke:#4aa7c0;strokeLinecap:round;strokeLinejoin:round;stroke-miterlimit:10;" x1="30" y1="10.5" x2="26" y2="10.5"/>
<g>
	<polygon style="fill:#98CCFD;" points="19.497,5.455 1.5,13.239 1.5,9.329 19.497,1.545 37.5,9.329 37.5,13.239  "/>
	<g>
		<path style="fill:#4aa7c0;" d="M19.497,2.089L37,9.657v2.821L19.894,5.082l-0.397-0.172L19.1,5.082L2,12.478V9.657L19.497,2.089     M19.497,1L1,9v5l18.497-8L38,14V9L19.497,1L19.497,1z"/>
	</g>
</g>
</svg>
